# xmcd
#
# Track frame offsets:
#	150
#	20031
#	37729
#	52147
#	67481
#	80592
#	105086
#	121029
#	146098
#	158972
#	171853
#	187825
#	207440
#
# Disc length: 3003 seconds
#
# Revision: 1
# Processed by: cddbd v1.5.2PL0 Copyright (c) Steve Scherf et al.
# Submitted via: audiograbber 1.83.01
#
DISCID=b30bb90d
DTITLE=Boyz II Men - Motown: A Journey Through Hitsville, USA
DYEAR=2007
DGENRE=R&B
TTITLE0=Just My Imagination (Running Away With Me)
TTITLE1=It's The Same Old Song/ Reach Out I'll Be There
TTITLE2=Mercy Mercy Me (The Ecology)
TTITLE3=The Tracks Of My Tears
TTITLE4=Money (That's What I Want)
TTITLE5=Easy
TTITLE6=I Was Made To Love Her
TTITLE7=All This Love
TTITLE8=Ribbon In The Sky
TTITLE9=Ain't Nothing Like The Real Thing (Feat. Patti LaBelle)
TTITLE10=Got To Be There
TTITLE11=War
TTITLE12=End Of The Road (Feat. Brian McKnight)
EXTD=
EXTT0=
EXTT1=
EXTT2=
EXTT3=
EXTT4=
EXTT5=
EXTT6=
EXTT7=
EXTT8=
EXTT9=
EXTT10=
EXTT11=
EXTT12=
PLAYORDER=
